<svg width="30" height="29" viewBox="0 0 30 29" fill="none" xmlns="http://www.w3.org/2000/svg">
<path fill-rule="evenodd" clip-rule="evenodd" d="M8.43435 6.56589C8.80055 6.19969 9.39427 6.19969 9.76047 6.56589L22.5765 19.3819C22.9427 19.7481 22.9427 20.3418 22.5765 20.708L21.9075 21.377C21.5413 21.7432 20.9476 21.7432 20.5814 21.377L7.76535 8.56101C7.39915 8.19481 7.39915 7.60109 7.76535 7.2349L8.43435 6.56589Z" fill="#404040"/>
<path fill-rule="evenodd" clip-rule="evenodd" d="M20.2395 6.56589C20.6057 6.19969 21.1994 6.19969 21.5656 6.56589L22.2347 7.2349C22.6008 7.60109 22.6008 8.19481 22.2347 8.56101L9.41863 21.377C9.05243 21.7432 8.45871 21.7432 8.09252 21.377L7.42351 20.708C7.05731 20.3418 7.05731 19.7481 7.42351 19.3819L20.2395 6.56589Z" fill="#404040"/>
</svg>
