<svg viewBox="0 0 32 30" 
  xmlns="http://www.w3.org/2000/svg">
  <path d="M6.67797 27.7543L6.73012 28.1957H7.17451H14.1504L14.41 28.407L14.4269 28.4208L14.4449 28.4331C14.8679 28.7202 15.4012 28.924 15.9578 28.924C16.4858 28.924 17.0385 28.7769 17.5002 28.4113L17.5002 28.4114L17.5055 28.407L17.7651 28.1957H24.741H25.1821L25.2371 27.7579L25.886 22.5893L30.0455 19.5202L30.198 19.4077L30.2376 19.2223C30.4453 18.2497 30.5268 17.2425 30.5268 16.2451C30.5268 8.08847 24.0329 1.42188 15.9578 1.42188C7.9242 1.42188 1.38867 8.04615 1.38867 16.2451C1.38867 17.2425 1.47022 18.2497 1.6779 19.2223L1.71774 19.4089L1.87176 19.5215L6.06765 22.5894L6.67797 27.7543Z" fill="#FBCE07" stroke="white"/>
  <path stroke="none" fill-rule="evenodd" clip-rule="evenodd" d="M14.3283 27.6957H7.17451L6.53862 22.3143L2.16687 19.1179C1.96816 18.1873 1.88867 17.2162 1.88867 16.2451C1.88867 8.31475 8.20784 1.92188 15.9578 1.92188C23.7077 1.92188 30.0268 8.35521 30.0268 16.2451C30.0268 17.2162 29.9474 18.1873 29.7486 19.1179L25.4166 22.3143L24.741 27.6957H17.5872L17.1898 28.0194C16.8321 28.3026 16.3949 28.424 15.9578 28.424C15.5206 28.424 15.0834 28.2621 14.7257 28.0194L14.3283 27.6957ZM9.36039 25.1871L8.84373 20.8982L4.55147 17.7422C4.43224 17.2567 4.35275 16.7307 4.35275 16.2047C4.35275 15.355 4.51173 14.5053 4.86941 13.7366L12.4604 21.5456L5.10787 12.28C5.38608 11.0661 6.02197 10.0141 6.93606 9.16444L13.5334 20.7768L7.69118 8.11245C8.4463 7.10092 9.51937 6.33215 10.7117 5.968L14.7655 20.3722L11.8245 5.36108C12.7386 4.83509 13.7321 4.59232 14.7655 4.59232C14.9642 4.59232 15.2026 4.59232 15.4014 4.63278L15.9975 20.2103L16.5937 4.63278C16.7924 4.59232 17.0308 4.59232 17.2295 4.59232C18.2629 4.59232 19.2564 4.87555 20.1705 5.36108L17.2295 20.3722L21.2833 5.92754C22.4756 6.29169 23.5487 7.06045 24.3038 8.07198L18.4218 20.7768L25.0192 9.16444C25.9333 9.97366 26.5692 11.0661 26.8474 12.28L19.4949 21.5456L27.0858 13.7366C27.4435 14.5053 27.6025 15.355 27.6025 16.2047C27.6025 16.7307 27.523 17.2162 27.4038 17.7422L23.1115 20.8982L22.5949 25.1871H17.4283L16.6334 25.7535C16.4347 25.9154 16.1962 25.9558 15.9578 25.9558C15.7193 25.9558 15.4808 25.8749 15.2821 25.7535L14.5667 25.1871H9.36039Z" fill="#DD1D21"/>
</svg>

