<svg viewBox="0 0 18 18" fill="none" xmlns="http://www.w3.org/2000/svg">
<path fill-rule="evenodd" clip-rule="evenodd" d="M18 9C18 13.9706 13.9706 18 9 18C4.02942 18 0 13.9706 0 9C0 4.02945 4.02942 0 9 0C13.9706 0 18 4.02945 18 9ZM12.6481 7.03125C12.6481 4.98438 11.0123 3.57526 9.04431 3.57526C7.10828 3.57526 5.55627 5.09525 5.65234 7.03125H7.64807V6.83926C7.64807 6.30963 8.10681 5.55963 9.04431 5.55963C10.0756 5.55963 10.4449 6.16901 10.4449 7.03125C10.4449 7.7442 9.93921 8.0928 9.38928 8.47189C8.73389 8.92361 8.01562 9.41861 8.01562 10.625V11H10.0156C10.0156 10.3277 10.5231 9.96265 11.0923 9.55307C11.8197 9.02972 12.6481 8.43369 12.6481 7.03125ZM9 14.75C9.69031 14.75 10.25 14.1904 10.25 13.5C10.25 12.8096 9.69031 12.25 9 12.25C8.30969 12.25 7.75 12.8096 7.75 13.5C7.75 14.1904 8.30969 14.75 9 14.75Z" fill="#33B1C3"/>
</svg>